<svg xmlns="http://www.w3.org/2000/svg" viewBox="0 0 70.87 85.04"><defs><style>.cls-1{fill:#fff;}</style></defs><g id="pilhvid"><path class="cls-1" d="M57.56,60.7a2.63,2.63,0,0,1-.84,1.51L35.55,79.3l-20.68-17A2.65,2.65,0,0,1,14,60.7H12.52a4.07,4.07,0,0,0,1.37,2.67l22,19.26L57.71,63.32a4.05,4.05,0,0,0,1.36-2.62Z"/><path class="cls-1" d="M58.8,49.1a2.7,2.7,0,0,1-.88,1.6L35.54,68.77l-21.87-18a2.69,2.69,0,0,1-.88-1.64H11.18a4.34,4.34,0,0,0,1.45,2.83L35.85,72.29,59,51.88a4.37,4.37,0,0,0,1.44-2.78Z"/><path class="cls-1" d="M61.89,35.47a3.11,3.11,0,0,1-1,1.81L35.51,57.79,10.7,37.33a3.12,3.12,0,0,1-1-1.86H7.88a4.87,4.87,0,0,0,1.64,3.21L35.86,61.77,62.08,38.63a5,5,0,0,0,1.63-3.16Z"/><path class="cls-1" d="M65.06,20.85a3.53,3.53,0,0,1-1.13,2L35.11,46.18,7,23a3.46,3.46,0,0,1-1.14-2.11H3.74a5.58,5.58,0,0,0,1.87,3.64L35.51,50.7,65.27,24.43a5.55,5.55,0,0,0,1.85-3.58Z"/><path class="cls-1" d="M67.14,7.14a3.78,3.78,0,0,1-1.21,2.2L35.08,34.25,5,9.4A3.79,3.79,0,0,1,3.72,7.14H1.51a6,6,0,0,0,2,3.89l32,28.06L67.37,11a6,6,0,0,0,2-3.83Z"/></g></svg>
