<svg xmlns="http://www.w3.org/2000/svg" viewBox="0 0 70.87 85.04"><defs><style>.cls-1{fill:#1d1d1b;}</style></defs><g id="pil"><path class="cls-1" d="M57.19,59.64a2.59,2.59,0,0,1-.83,1.51L35.19,78.24l-20.68-17a2.57,2.57,0,0,1-.84-1.55H12.16a4,4,0,0,0,1.37,2.67l22,19.26,21.86-19.3a4.1,4.1,0,0,0,1.36-2.63Z"/><path class="cls-1" d="M58.44,48a2.72,2.72,0,0,1-.88,1.6L35.18,67.72l-21.87-18A2.75,2.75,0,0,1,12.42,48h-1.6a4.32,4.32,0,0,0,1.45,2.83L35.49,71.23,58.61,50.82A4.29,4.29,0,0,0,60,48Z"/><path class="cls-1" d="M61.53,34.41a3.07,3.07,0,0,1-1,1.81L35.15,56.73,10.34,36.27a3.12,3.12,0,0,1-1-1.86H7.52a4.87,4.87,0,0,0,1.64,3.21L35.5,60.71,61.72,37.57a4.93,4.93,0,0,0,1.63-3.16Z"/><path class="cls-1" d="M64.7,19.79a3.56,3.56,0,0,1-1.13,2.05L34.75,45.12,6.59,21.9a3.52,3.52,0,0,1-1.15-2.11H3.38a5.58,5.58,0,0,0,1.87,3.64l29.9,26.21L64.91,23.37a5.59,5.59,0,0,0,1.85-3.58Z"/><path class="cls-1" d="M66.78,6.08a3.78,3.78,0,0,1-1.21,2.2L34.72,33.19,4.59,8.34A3.79,3.79,0,0,1,3.36,6.08H1.15a6,6,0,0,0,2,3.9L35.16,38,67,9.91a6,6,0,0,0,2-3.83Z"/></g></svg>
